<svg width="34" height="34" viewBox="0 0 34 34" fill="none" xmlns="http://www.w3.org/2000/svg">
<path d="M29.75 22.6669V11.3335C29.7495 10.8367 29.6183 10.3487 29.3697 9.9185C29.121 9.48833 28.7636 9.13112 28.3333 8.88269L18.4167 3.21602C17.9859 2.96734 17.4974 2.83643 17 2.83643C16.5026 2.83643 16.0141 2.96734 15.5833 3.21602L5.66667 8.88269C5.23637 9.13112 4.87897 9.48833 4.63032 9.9185C4.38167 10.3487 4.25051 10.8367 4.25 11.3335V22.6669C4.25051 23.1637 4.38167 23.6517 4.63032 24.0819C4.87897 24.512 5.23637 24.8693 5.66667 25.1177L15.5833 30.7844C16.0141 31.033 16.5026 31.1639 17 31.1639C17.4974 31.1639 17.9859 31.033 18.4167 30.7844L28.3333 25.1177C28.7636 24.8693 29.121 24.512 29.3697 24.0819C29.6183 23.6517 29.7495 23.1637 29.75 22.6669Z" stroke="black" stroke-width="2" stroke-linecap="round" stroke-linejoin="round"/>
<path d="M4.63232 9.85986L16.9998 17.014L29.3673 9.85986" stroke="black" stroke-width="2" stroke-linecap="round" stroke-linejoin="round"/>
<path d="M17 31.28V17" stroke="black" stroke-width="2" stroke-linecap="round" stroke-linejoin="round"/>
</svg>
