<svg width="34" height="34" viewBox="0 0 34 34" fill="none" xmlns="http://www.w3.org/2000/svg">
<path d="M31.1668 17H2.8335" stroke="black" stroke-width="2" stroke-linecap="round" stroke-linejoin="round"/>
<path d="M7.721 7.239L2.8335 16.9998V25.4998C2.8335 26.2513 3.13201 26.972 3.66336 27.5033C4.19471 28.0347 4.91538 28.3332 5.66683 28.3332H28.3335C29.0849 28.3332 29.8056 28.0347 30.337 27.5033C30.8683 26.972 31.1668 26.2513 31.1668 25.4998V16.9998L26.2793 7.239C26.0448 6.76695 25.6832 6.3697 25.2352 6.0919C24.7872 5.8141 24.2706 5.66678 23.7435 5.6665H10.2568C9.72971 5.66678 9.21312 5.8141 8.76514 6.0919C8.31717 6.3697 7.95556 6.76695 7.721 7.239V7.239Z" stroke="black" stroke-width="2" stroke-linecap="round" stroke-linejoin="round"/>
<path d="M14.1665 22.6665H14.1807" stroke="black" stroke-width="2" stroke-linecap="round" stroke-linejoin="round"/>
<path d="M8.5 22.6665H8.51417" stroke="black" stroke-width="2" stroke-linecap="round" stroke-linejoin="round"/>
</svg>
